<svg width="16" height="17" viewBox="0 0 16 17" fill="none" xmlns="http://www.w3.org/2000/svg">
<path d="M11.6333 15.6668C10.88 15.6668 10.0867 15.4868 9.26668 15.1402C8.46668 14.8002 7.66001 14.3335 6.87334 13.7668C6.09334 13.1935 5.34001 12.5535 4.62668 11.8535C3.92001 11.1402 3.28001 10.3868 2.71334 9.6135C2.14001 8.8135 1.68001 8.0135 1.35334 7.24016C1.00668 6.4135 0.833344 5.6135 0.833344 4.86016C0.833344 4.34016 0.926677 3.84683 1.10668 3.38683C1.29334 2.9135 1.59334 2.4735 2.00001 2.0935C2.51334 1.58683 3.10001 1.3335 3.72668 1.3335C3.98668 1.3335 4.25334 1.3935 4.48001 1.50016C4.74001 1.62016 4.96001 1.80016 5.12001 2.04016L6.66668 4.22016C6.80668 4.4135 6.91334 4.60016 6.98668 4.78683C7.07334 4.98683 7.12001 5.18683 7.12001 5.38016C7.12001 5.6335 7.04668 5.88016 6.90668 6.1135C6.80668 6.2935 6.65334 6.48683 6.46001 6.68016L6.00668 7.1535C6.01334 7.1735 6.02001 7.18683 6.02668 7.20016C6.10668 7.34016 6.26668 7.58016 6.57334 7.94016C6.90001 8.3135 7.20668 8.6535 7.51334 8.96683C7.90668 9.3535 8.23334 9.66016 8.54001 9.9135C8.92001 10.2335 9.16668 10.3935 9.31334 10.4668L9.30001 10.5002L9.78668 10.0202C9.99334 9.8135 10.1933 9.66016 10.3867 9.56016C10.7533 9.3335 11.22 9.2935 11.6867 9.48683C11.86 9.56016 12.0467 9.66016 12.2467 9.80016L14.46 11.3735C14.7067 11.5402 14.8867 11.7535 14.9933 12.0068C15.0933 12.2602 15.14 12.4935 15.14 12.7268C15.14 13.0468 15.0667 13.3668 14.9267 13.6668C14.7867 13.9668 14.6133 14.2268 14.3933 14.4668C14.0133 14.8868 13.6 15.1868 13.12 15.3802C12.66 15.5668 12.16 15.6668 11.6333 15.6668ZM3.72668 2.3335C3.36001 2.3335 3.02001 2.4935 2.69334 2.8135C2.38668 3.10016 2.17334 3.4135 2.04001 3.7535C1.90001 4.10016 1.83334 4.46683 1.83334 4.86016C1.83334 5.48016 1.98001 6.1535 2.27334 6.84683C2.57334 7.5535 2.99334 8.28683 3.52668 9.02016C4.06001 9.7535 4.66668 10.4668 5.33334 11.1402C6.00001 11.8002 6.72001 12.4135 7.46001 12.9535C8.18001 13.4802 8.92001 13.9068 9.65334 14.2135C10.7933 14.7002 11.86 14.8135 12.74 14.4468C13.08 14.3068 13.38 14.0935 13.6533 13.7868C13.8067 13.6202 13.9267 13.4402 14.0267 13.2268C14.1067 13.0602 14.1467 12.8868 14.1467 12.7135C14.1467 12.6068 14.1267 12.5002 14.0733 12.3802C14.0533 12.3402 14.0133 12.2668 13.8867 12.1802L11.6733 10.6068C11.54 10.5135 11.42 10.4468 11.3067 10.4002C11.16 10.3402 11.1 10.2802 10.8733 10.4202C10.74 10.4868 10.62 10.5868 10.4867 10.7202L9.98001 11.2202C9.72001 11.4735 9.32001 11.5335 9.01334 11.4202L8.83334 11.3402C8.56001 11.1935 8.24001 10.9668 7.88668 10.6668C7.56668 10.3935 7.22001 10.0735 6.80001 9.66016C6.47334 9.32683 6.14668 8.9735 5.80668 8.58016C5.49334 8.2135 5.26668 7.90016 5.12668 7.64016L5.04668 7.44016C5.00668 7.28683 4.99334 7.20016 4.99334 7.10683C4.99334 6.86683 5.08001 6.6535 5.24668 6.48683L5.74668 5.96683C5.88001 5.8335 5.98001 5.70683 6.04668 5.5935C6.10001 5.50683 6.12001 5.4335 6.12001 5.36683C6.12001 5.3135 6.10001 5.2335 6.06668 5.1535C6.02001 5.04683 5.94668 4.92683 5.85334 4.80016L4.30668 2.6135C4.24001 2.52016 4.16001 2.4535 4.06001 2.40683C3.95334 2.36016 3.84001 2.3335 3.72668 2.3335ZM9.30001 10.5068L9.19334 10.9602L9.37334 10.4935C9.34001 10.4868 9.31334 10.4935 9.30001 10.5068Z" fill="#37424A"/>
</svg>
