<svg width="16" height="17" viewBox="0 0 16 17" fill="none" xmlns="http://www.w3.org/2000/svg">
<path d="M8.00001 15.6668C4.04668 15.6668 0.833344 12.4535 0.833344 8.50016C0.833344 4.54683 4.04668 1.3335 8.00001 1.3335C11.9533 1.3335 15.1667 4.54683 15.1667 8.50016C15.1667 12.4535 11.9533 15.6668 8.00001 15.6668ZM8.00001 2.3335C4.60001 2.3335 1.83334 5.10016 1.83334 8.50016C1.83334 11.9002 4.60001 14.6668 8.00001 14.6668C11.4 14.6668 14.1667 11.9002 14.1667 8.50016C14.1667 5.10016 11.4 2.3335 8.00001 2.3335Z" fill="#37424A"/>
<path d="M10.4733 11.1202C10.3867 11.1202 10.3 11.1002 10.22 11.0468L8.15334 9.8135C7.64001 9.50684 7.26001 8.8335 7.26001 8.24017V5.50684C7.26001 5.2335 7.48668 5.00684 7.76001 5.00684C8.03334 5.00684 8.26001 5.2335 8.26001 5.50684V8.24017C8.26001 8.48017 8.46001 8.8335 8.66668 8.9535L10.7333 10.1868C10.9733 10.3268 11.0467 10.6335 10.9067 10.8735C10.8067 11.0335 10.64 11.1202 10.4733 11.1202Z" fill="#37424A"/>
</svg>
