<svg width="16" height="17" viewBox="0 0 16 17" fill="none" xmlns="http://www.w3.org/2000/svg">
<path d="M8.00001 9.94679C6.58001 9.94679 5.42001 8.79346 5.42001 7.36679C5.42001 5.94012 6.58001 4.79346 8.00001 4.79346C9.42001 4.79346 10.58 5.94679 10.58 7.37346C10.58 8.80012 9.42001 9.94679 8.00001 9.94679ZM8.00001 5.79346C7.13335 5.79346 6.42001 6.50012 6.42001 7.37346C6.42001 8.24679 7.12668 8.95346 8.00001 8.95346C8.87335 8.95346 9.58001 8.24679 9.58001 7.37346C9.58001 6.50012 8.86668 5.79346 8.00001 5.79346Z" fill="#37424A"/>
<path d="M8 15.6735C7.01333 15.6735 6.01999 15.3002 5.24666 14.5602C3.28 12.6668 1.10666 9.64683 1.92666 6.0535C2.66666 2.7935 5.51333 1.3335 8 1.3335C8 1.3335 8 1.3335 8.00666 1.3335C10.4933 1.3335 13.34 2.7935 14.08 6.06016C14.8933 9.6535 12.72 12.6668 10.7533 14.5602C9.97999 15.3002 8.98666 15.6735 8 15.6735ZM8 2.3335C6.06 2.3335 3.56666 3.36683 2.90666 6.2735C2.18666 9.4135 4.16 12.1202 5.94666 13.8335C7.1 14.9468 8.90666 14.9468 10.06 13.8335C11.84 12.1202 13.8133 9.4135 13.1067 6.2735C12.44 3.36683 9.93999 2.3335 8 2.3335Z" fill="#37424A"/>
</svg>
