<svg width="16" height="17" viewBox="0 0 16 17" fill="none" xmlns="http://www.w3.org/2000/svg">
<path d="M11.3333 14.6668H4.66668C2.23334 14.6668 0.833344 13.2668 0.833344 10.8335V6.16683C0.833344 3.7335 2.23334 2.3335 4.66668 2.3335H11.3333C13.7667 2.3335 15.1667 3.7335 15.1667 6.16683V10.8335C15.1667 13.2668 13.7667 14.6668 11.3333 14.6668ZM4.66668 3.3335C2.76001 3.3335 1.83334 4.26016 1.83334 6.16683V10.8335C1.83334 12.7402 2.76001 13.6668 4.66668 13.6668H11.3333C13.24 13.6668 14.1667 12.7402 14.1667 10.8335V6.16683C14.1667 4.26016 13.24 3.3335 11.3333 3.3335H4.66668Z" fill="#37424A"/>
<path d="M7.99984 9.07998C7.43984 9.07998 6.87318 8.90665 6.43984 8.55331L4.35317 6.88665C4.13984 6.71331 4.09984 6.39998 4.27318 6.18665C4.44651 5.97331 4.75985 5.93332 4.97318 6.10665L7.05984 7.77332C7.56651 8.17998 8.4265 8.17998 8.93317 7.77332L11.0198 6.10665C11.2332 5.93332 11.5532 5.96665 11.7198 6.18665C11.8932 6.39998 11.8598 6.71998 11.6398 6.88665L9.55318 8.55331C9.12651 8.90665 8.55984 9.07998 7.99984 9.07998Z" fill="#37424A"/>
</svg>
